<svg viewBox="0 0 31 10" xmlns="http://www.w3.org/2000/svg" xmlns:xlink="http://www.w3.org/1999/xlink" width="31.000000" height="10.000000" fill="none" customFrame="#000000">
	<defs>
		<clipPath id="clipPath_0">
			<rect width="10.000000" height="10.000000" x="0.000000" y="0.000000" fill="rgb(255,255,255)" />
		</clipPath>
		<linearGradient id="paint_linear_0" x1="11.0000038" x2="31.0000038" y1="5" y2="5" gradientUnits="userSpaceOnUse">
			<stop stop-color="rgb(91,206,250)" offset="0" stop-opacity="1" />
			<stop stop-color="rgb(245,169,184)" offset="0.25" stop-opacity="1" />
			<stop stop-color="rgb(255,255,255)" offset="0.5" stop-opacity="1" />
			<stop stop-color="rgb(245,169,184)" offset="0.75" stop-opacity="1" />
			<stop stop-color="rgb(91,206,250)" offset="1" stop-opacity="1" />
		</linearGradient>
	</defs>
	<g id="组合 22">
		<g id="trans 1" clip-path="url(#clipPath_0)" customFrame="url(#clipPath_0)">
			<rect id="trans 1" width="10.000000" height="10.000000" x="0.000000" y="0.000000" />
			<path id="矢量 2" d="M0 7.5C0 8.11361 0.4975 8.61111 1.11111 8.61111L8.88889 8.61111C9.5025 8.61111 10 8.11361 10 7.5L10 7.13889L0 7.13889L0 7.5Z" fill="rgb(91,206,250)" fill-rule="nonzero" />
			<path id="矢量 3" d="M0.00722222 5.69446L0 7.16668L10 7.16668L10 5.69446L0.00722222 5.69446Z" fill="rgb(245,169,184)" fill-rule="nonzero" />
			<path id="矢量 4" d="M0 4.25L10 4.25L10 5.72222L0 5.72222L0 4.25Z" fill="rgb(238,238,238)" fill-rule="nonzero" />
			<path id="矢量 5" d="M0 2.75055L10 2.75055L10 4.27777L0 4.27777L0 2.75055Z" fill="rgb(245,169,184)" fill-rule="nonzero" />
			<path id="矢量 6" d="M10 2.5C10 1.88639 9.5025 1.38889 8.88889 1.38889L1.11111 1.38889C0.4975 1.38889 0 1.88639 0 2.5L0 2.83333L10 2.83333L10 2.5Z" fill="rgb(91,206,250)" fill-rule="nonzero" />
		</g>
		<path id="" d="M11.1719 2.76172Q11.207 2.90625 11.3242 3Q11.4414 3.08984 11.5898 3.08984L12.5742 3.08984L12.5742 6.87891Q12.5742 7.14844 12.7656 7.33984Q12.957 7.52734 13.2266 7.52734L13.2383 7.52734Q13.5078 7.52734 13.6992 7.33984Q13.8867 7.14844 13.8867 6.87891L13.8867 3.08984L14.8711 3.08984Q15.0195 3.08984 15.1367 3Q15.2578 2.90625 15.293 2.76172L15.293 2.75391Q15.3477 2.55078 15.2148 2.38281Q15.0859 2.21484 14.875 2.21484L11.5898 2.21484Q11.3789 2.21484 11.2461 2.38281Q11.1172 2.55078 11.168 2.75391L11.1719 2.76172ZM18.1094 3.52734Q17.5273 3.52734 17.1992 3.75781Q17.0742 3.84375 16.9453 4.04297Q16.6758 3.64844 16.3398 3.64844L16.3203 3.64844Q16.0703 3.64844 15.8906 3.82422Q15.7148 4.00391 15.7148 4.25391L15.7148 6.92188Q15.7148 7.16797 15.8906 7.34375Q16.0664 7.52344 16.3164 7.52344L16.3281 7.52344Q16.5781 7.52344 16.7539 7.34375Q16.9297 7.16797 16.9297 6.92188L16.9297 5.26172Q16.9297 5.26172 16.9336 5.26172Q16.9336 5.25781 16.9336 5.25781Q16.9375 5.20312 16.9453 5.16406Q16.9883 4.94531 17.2812 4.73047Q17.6133 4.48828 17.9531 4.54297Q18.1875 4.58594 18.2461 4.20703L18.3359 3.80469Q18.3594 3.69922 18.2891 3.61328Q18.2227 3.52734 18.1094 3.52734ZM19.7188 5.47656Q19.7188 5.1875 19.8242 4.95312Q19.9375 4.70703 20.125 4.61719Q20.5156 4.42578 20.9062 4.57812Q21.2461 4.71094 21.3359 4.95312L21.3359 5.92969Q21.3242 6.41406 20.9258 6.55078Q20.7266 6.61719 20.5273 6.58594Q20.1914 6.58594 19.9531 6.27734Q19.7188 5.96484 19.7188 5.52344L19.7188 5.47656ZM18.5469 5.55469Q18.5469 6.37109 19.0977 6.94922Q19.6484 7.52734 20.4258 7.52734Q20.6484 7.52734 21.0625 7.25781Q21.1641 7.19141 21.2852 7.20703Q21.4023 7.22266 21.4883 7.3125Q21.6875 7.52734 21.8047 7.52734L22.3203 7.52734Q22.4219 7.52734 22.4961 7.45312Q22.5703 7.38281 22.5703 7.27734L22.5703 4.15625Q22.5703 3.96875 22.4336 3.83203Q22.3008 3.69922 22.1094 3.69922L21.7891 3.69922Q21.6016 3.69922 21.4688 3.83203Q21.3359 3.96484 21.3359 4.15234L21.3359 4.15625Q21.082 3.57812 20.4258 3.57812Q19.6484 3.57812 19.0977 4.15625Q18.5469 4.73438 18.5469 5.55469ZM27.1641 5.5625Q27.1602 4.64844 26.707 4.07422Q26.1836 3.41797 25.2891 3.60156Q25.1133 3.63672 24.375 4.07031L24.375 4.06641Q24.375 3.90625 24.2617 3.79297Q24.1484 3.67578 23.9883 3.67578L23.5391 3.67578Q23.375 3.67578 23.2578 3.79297Q23.1445 3.90625 23.1445 4.07031L23.1445 6.95312Q23.1445 7.19922 23.3203 7.375Q23.4961 7.55078 23.7422 7.55078L23.7617 7.55078Q24.0078 7.55078 24.1836 7.375Q24.3594 7.19922 24.3594 6.95312L24.3594 5.29297Q24.3672 5.28516 24.3633 5.28906Q24.3672 5.23438 24.375 5.19531Q24.4258 4.92969 24.7891 4.70703Q25.2031 4.45312 25.5898 4.64062Q25.957 4.82031 25.957 5.48047L25.957 6.95312Q25.957 7.19922 26.1328 7.375Q26.3086 7.55078 26.5547 7.55078L26.5664 7.55078Q26.8164 7.55078 26.9922 7.375Q27.168 7.19922 27.168 6.95312L27.1641 5.5625ZM27.6016 6.89453Q27.6484 6.71484 27.8086 6.625Q27.9688 6.53516 28.1445 6.58984Q28.4844 6.69531 28.7578 6.69531Q29.2695 6.69531 29.2695 6.37891Q29.2695 6.22656 29.1523 6.13281Q29.0391 6.04297 28.707 5.92969Q27.5898 5.55859 27.6055 4.76953Q27.6055 4.21875 28.0312 3.86328Q28.4688 3.50391 29.1719 3.50391Q29.5273 3.50391 29.8594 3.58984Q30.0273 3.63281 30.1172 3.77734Q30.207 3.92578 30.1641 4.09375L30.1602 4.10156Q30.1211 4.26953 29.9688 4.35938Q29.8164 4.44922 29.6484 4.40234Q29.4141 4.33594 29.2148 4.33594Q28.7578 4.33594 28.7578 4.64453Q28.7578 4.78516 28.8906 4.87891Q29.0156 4.96875 29.3789 5.09375Q30.4062 5.44922 30.418 6.28516Q30.418 6.84766 30 7.18359Q29.5586 7.53906 28.7578 7.53906Q28.3008 7.53906 27.8945 7.41797Q27.7305 7.36719 27.6445 7.21875Q27.5586 7.07031 27.6016 6.90234L27.6016 6.89453Z" fill="url(#paint_linear_0)" fill-rule="nonzero" />
	</g>
</svg>
