<svg xmlns="http://www.w3.org/2000/svg" width="480" height="320" viewBox="0 0 480 320" role="img" aria-labelledby="title description">
<title id="title">Ariakage&#x27;s weekly contribution activity</title><desc id="description">Week of 2026-06-22: 16; Week of 2026-06-29: 51; Week of 2026-07-06: 2; Week of 2026-07-13: 105; Week of 2026-07-20: 85; Week of 2026-07-27: 0; Week of 2026-08-03: 226; Week of 2026-08-10: 10; Week of 2026-08-17: 0; Week of 2026-08-24: 14; Week of 2026-08-31: 2; Week of 2026-09-07: 28</desc>
<style>text{font-family:-apple-system,BlinkMacSystemFont,'Segoe UI',Helvetica,Arial,sans-serif}.bg{fill:#f6faff}.border{fill:#dce8f4}.text{fill:#233954}.muted{fill:#5d728a}.blue{fill:#2889ce}.pink{fill:#d96280}.grid{fill:#e3edf7}.fill{fill:#d4eaff}
.signal{animation:breathe 3.6s ease-in-out infinite}@keyframes breathe{50%{opacity:.3}}
.trace{stroke-dasharray:28 972;animation:travel 10s linear infinite}@keyframes travel{to{stroke-dashoffset:-1000}}
@media(prefers-reduced-motion:reduce){.signal,.trace{animation:none}.trace{display:none}}
</style><rect x=".5" y=".5" width="479" height="319" rx="18" fill="#f6faff" stroke="#dce8f4"/><text x="30" y="36" class="muted" font-size="12" font-weight="600" letter-spacing="1.6">05 / THE RHYTHM OF BUILDING</text><text x="30" y="65" class="text" font-size="19" font-weight="600" >Small steps, a growing constellation.</text><path d="M40 229H448" stroke="#e3edf7" stroke-dasharray="3 6"/><text x="28" y="233" class="muted" font-size="10" font-weight="400" text-anchor="end">0</text><path d="M40 166.0H448" stroke="#e3edf7" stroke-dasharray="3 6"/><text x="28" y="170.0" class="muted" font-size="10" font-weight="400" text-anchor="end">115</text><path d="M40 103H448" stroke="#e3edf7" stroke-dasharray="3 6"/><text x="28" y="107" class="muted" font-size="10" font-weight="400" text-anchor="end">230</text><path d="M 40.00,220.23 L 77.09,201.06 L 114.18,227.90 L 151.27,171.48 L 188.36,182.43 L 225.45,229.00 L 262.55,105.19 L 299.64,223.52 L 336.73,229.00 L 373.82,221.33 L 410.91,227.90 L 448.00,213.66 L448,229 L40,229 Z" fill="#d4eaff" opacity=".6"/><path d="M 40.00,220.23 L 77.09,201.06 L 114.18,227.90 L 151.27,171.48 L 188.36,182.43 L 225.45,229.00 L 262.55,105.19 L 299.64,223.52 L 336.73,229.00 L 373.82,221.33 L 410.91,227.90 L 448.00,213.66" fill="none" stroke="#2889ce" stroke-width="2.5" stroke-linejoin="round"/><path class="trace" d="M 40.00,220.23 L 77.09,201.06 L 114.18,227.90 L 151.27,171.48 L 188.36,182.43 L 225.45,229.00 L 262.55,105.19 L 299.64,223.52 L 336.73,229.00 L 373.82,221.33 L 410.91,227.90 L 448.00,213.66" pathLength="1000" fill="none" stroke="#d96280" stroke-width="3.5" stroke-linecap="round"/><circle cx="40.0" cy="220.23478260869564" r="3.5" fill="#f6faff" stroke="#2889ce" stroke-width="2"><title>2026-06-22: 16 contributions</title></circle><text x="40.0" y="252" class="muted" font-size="10" font-weight="400" text-anchor="middle">06/22</text><circle cx="77.0909090909091" cy="201.0608695652174" r="3.5" fill="#f6faff" stroke="#2889ce" stroke-width="2"><title>2026-06-29: 51 contributions</title></circle><text x="77.0909090909091" y="252" class="muted" font-size="10" font-weight="400" text-anchor="middle">06/29</text><circle cx="114.18181818181819" cy="227.90434782608696" r="3.5" fill="#f6faff" stroke="#2889ce" stroke-width="2"><title>2026-07-06: 2 contributions</title></circle><text x="114.18181818181819" y="252" class="muted" font-size="10" font-weight="400" text-anchor="middle">07/06</text><circle cx="151.27272727272725" cy="171.47826086956522" r="3.5" fill="#f6faff" stroke="#2889ce" stroke-width="2"><title>2026-07-13: 105 contributions</title></circle><text x="151.27272727272725" y="252" class="muted" font-size="10" font-weight="400" text-anchor="middle">07/13</text><circle cx="188.36363636363637" cy="182.43478260869566" r="3.5" fill="#f6faff" stroke="#2889ce" stroke-width="2"><title>2026-07-20: 85 contributions</title></circle><text x="188.36363636363637" y="252" class="muted" font-size="10" font-weight="400" text-anchor="middle">07/20</text><circle cx="225.45454545454547" cy="229.0" r="3.5" fill="#f6faff" stroke="#2889ce" stroke-width="2"><title>2026-07-27: 0 contributions</title></circle><text x="225.45454545454547" y="252" class="muted" font-size="10" font-weight="400" text-anchor="middle">07/27</text><circle cx="262.5454545454545" cy="105.19130434782609" r="3.5" fill="#f6faff" stroke="#2889ce" stroke-width="2"><title>2026-08-03: 226 contributions</title></circle><text x="262.5454545454545" y="252" class="muted" font-size="10" font-weight="400" text-anchor="middle">08/03</text><circle cx="299.6363636363636" cy="223.52173913043478" r="3.5" fill="#f6faff" stroke="#2889ce" stroke-width="2"><title>2026-08-10: 10 contributions</title></circle><text x="299.6363636363636" y="252" class="muted" font-size="10" font-weight="400" text-anchor="middle">08/10</text><circle cx="336.72727272727275" cy="229.0" r="3.5" fill="#f6faff" stroke="#2889ce" stroke-width="2"><title>2026-08-17: 0 contributions</title></circle><text x="336.72727272727275" y="252" class="muted" font-size="10" font-weight="400" text-anchor="middle">08/17</text><circle cx="373.8181818181818" cy="221.3304347826087" r="3.5" fill="#f6faff" stroke="#2889ce" stroke-width="2"><title>2026-08-24: 14 contributions</title></circle><text x="373.8181818181818" y="252" class="muted" font-size="10" font-weight="400" text-anchor="middle">08/24</text><circle cx="410.90909090909093" cy="227.90434782608696" r="3.5" fill="#f6faff" stroke="#2889ce" stroke-width="2"><title>2026-08-31: 2 contributions</title></circle><text x="410.90909090909093" y="252" class="muted" font-size="10" font-weight="400" text-anchor="middle">08/31</text><circle cx="448.0" cy="213.66086956521738" r="3.5" fill="#f6faff" stroke="#2889ce" stroke-width="2"><title>2026-09-07: 28 contributions</title></circle><text x="448.0" y="252" class="muted" font-size="10" font-weight="400" text-anchor="middle">09/07</text><text x="30" y="282" class="muted" font-size="10" font-weight="400" >Contributions per week · Monday start · Current week is partial</text><text x="30" y="301" class="muted" font-size="9" font-weight="400" >LAST 12 WEEKS / UPDATED 2026-09-12 UTC</text></svg>
